<svg xmlns="http://www.w3.org/2000/svg" xmlns:xlink="http://www.w3.org/1999/xlink" width="1000" zoomAndPan="magnify" viewBox="0 0 750 149.999998" height="200" preserveAspectRatio="xMidYMid meet" version="1.0"><path fill="#199bd7" d="M 714.167969 34.875 C 714.167969 34.875 679.960938 109.785156 679.839844 110.011719 C 678.507812 112.464844 674.589844 113.367188 672.136719 112.035156 C 669.683594 110.703125 669.625 107.625 670.957031 105.171875 C 671 105.089844 678.667969 88.378906 678.667969 88.378906 L 654.382812 35.507812 C 652.867188 32.675781 653.160156 29.261719 656.101562 27.851562 C 658.605469 26.65625 661.421875 26.816406 663.367188 30.71875 C 663.605469 31.183594 683.996094 76.359375 683.996094 76.359375 C 683.996094 76.359375 705.242188 30.105469 705.28125 30.027344 C 706.613281 27.574219 709.691406 26.671875 712.144531 28.003906 C 714.597656 29.335938 715.355469 32.304688 714.167969 34.867188 Z M 645.777344 83.339844 C 645.777344 86.492188 643.40625 88.550781 640.566406 88.550781 C 637.726562 88.550781 635.609375 86.246094 635.609375 83.40625 L 635.609375 80.910156 C 630.246094 85.648438 623.015625 88.53125 615.292969 88.53125 C 598.5 88.53125 584.886719 74.917969 584.886719 58.125 C 584.886719 41.332031 598.5 27.71875 615.292969 27.71875 C 632.085938 27.71875 645.765625 41.375 645.765625 58.175781 C 645.765625 58.234375 645.765625 80.195312 645.765625 83.347656 Z M 635.617188 58.402344 C 635.617188 47.183594 626.523438 38.085938 615.300781 38.085938 C 604.082031 38.085938 594.984375 47.183594 594.984375 58.402344 C 594.984375 69.625 604.082031 78.71875 615.300781 78.71875 C 626.523438 78.71875 635.617188 69.625 635.617188 58.402344 Z M 524.652344 34.671875 C 535.746094 25.636719 547.835938 27.617188 550.144531 28.105469 C 552.582031 28.621094 554.234375 30.84375 553.988281 33.28125 C 553.738281 35.800781 551.386719 37.792969 548.804688 37.613281 C 540.351562 36.492188 534.289062 39.496094 531.109375 42.191406 C 522.402344 49.070312 521.257812 62.796875 528.355469 71.175781 C 535.234375 79.832031 548.90625 81.207031 557.335938 73.929688 C 563.296875 69.007812 564.527344 63.875 564.710938 56.117188 C 564.789062 52.730469 564.773438 17.054688 564.585938 7.796875 L 564.644531 7.796875 C 564.847656 1.097656 574.585938 1.105469 574.777344 7.796875 C 574.777344 7.796875 574.734375 40.226562 574.71875 54.820312 C 574.675781 66.808594 571.09375 75.566406 563.785156 81.601562 C 558.464844 85.984375 551.679688 88.597656 544.785156 88.597656 C 515.988281 88.71875 502.835938 53.355469 524.671875 34.664062 Z M 503.410156 55.328125 C 503.394531 40 489.769531 27.53125 473.019531 27.53125 C 456.269531 27.53125 442.628906 40.015625 442.628906 55.351562 L 442.628906 83.625 C 442.636719 86.382812 444.898438 88.449219 447.652344 88.449219 C 450.214844 88.449219 452.410156 86.660156 452.6875 84.171875 L 452.6875 55.359375 C 452.6875 45.5625 461.816406 37.597656 473.019531 37.597656 C 484.222656 37.597656 493.351562 45.5625 493.351562 55.359375 L 493.351562 83.609375 C 493.359375 86.367188 495.621094 88.429688 498.378906 88.429688 C 500.941406 88.429688 503.132812 86.644531 503.410156 84.15625 Z M 431.511719 83.339844 C 431.511719 86.492188 429.140625 88.550781 426.300781 88.550781 C 423.460938 88.550781 421.34375 86.246094 421.34375 83.40625 L 421.34375 80.910156 C 415.980469 85.648438 408.75 88.53125 401.027344 88.53125 C 384.234375 88.53125 370.621094 74.917969 370.621094 58.125 C 370.621094 41.332031 384.234375 27.71875 401.027344 27.71875 C 417.820312 27.71875 431.5 41.375 431.5 58.175781 C 431.5 58.234375 431.5 80.195312 431.5 83.347656 Z M 421.351562 58.402344 C 421.351562 47.183594 412.257812 38.085938 401.035156 38.085938 C 389.816406 38.085938 380.71875 47.183594 380.71875 58.402344 C 380.71875 69.625 389.816406 78.71875 401.035156 78.71875 C 412.257812 78.71875 421.351562 69.625 421.351562 58.402344 Z M 355.292969 2.824219 C 352.480469 2.824219 350.203125 5.101562 350.203125 7.917969 L 350.203125 83.390625 C 350.203125 86.207031 352.488281 88.480469 355.292969 88.480469 C 358.101562 88.480469 360.386719 86.195312 360.386719 83.390625 L 360.386719 7.914062 C 360.386719 5.101562 358.101562 2.824219 355.292969 2.824219 Z M 329.253906 81.425781 C 318.160156 90.460938 306.070312 88.480469 303.761719 87.992188 C 301.324219 87.476562 299.671875 85.253906 299.917969 82.816406 C 300.171875 80.296875 302.523438 78.304688 305.101562 78.484375 C 313.558594 79.605469 319.617188 76.605469 322.796875 73.90625 C 331.503906 67.027344 332.652344 53.304688 325.554688 44.921875 C 318.675781 36.265625 305 34.890625 296.570312 42.167969 C 290.609375 47.089844 289.378906 52.222656 289.195312 59.980469 C 289.121094 63.367188 289.136719 99.042969 289.320312 108.300781 L 289.261719 108.300781 C 289.058594 115.003906 279.324219 114.992188 279.128906 108.300781 C 279.128906 108.300781 279.171875 75.871094 279.1875 61.277344 C 279.230469 49.289062 282.8125 40.53125 290.121094 34.496094 C 295.441406 30.113281 302.226562 27.5 309.125 27.5 C 337.921875 27.378906 351.070312 62.746094 329.238281 81.433594 Z M 243.292969 4.089844 C 239.265625 1.046875 233.546875 1.710938 230.328125 5.613281 L 196.011719 46.921875 C 182.707031 0.9375 133.746094 1.550781 113.023438 24.886719 C 112.664062 25.316406 52.355469 98.160156 52.355469 98.160156 C 49.261719 101.894531 49.503906 107.375 52.917969 110.820312 C 56.847656 114.78125 63.347656 114.488281 66.894531 110.179688 C 66.894531 110.179688 116.480469 49.570312 123.890625 41.011719 C 131.308594 32.457031 137.503906 27.71875 148.777344 27.71875 C 165.933594 27.71875 178.71875 41.679688 178.71875 57.660156 C 178.71875 73.644531 166 87.605469 148.777344 87.605469 C 134.285156 87.605469 125.492188 77.117188 124.488281 76.171875 C 120.695312 72.617188 115.054688 73.054688 111.8125 76.265625 C 108.75 79.300781 108.066406 84.453125 111.179688 88.363281 C 113.058594 90.730469 125.898438 106.160156 149.417969 106.160156 C 167.070312 106.160156 180.71875 95.816406 190.808594 83.691406 C 203.480469 68.46875 244.871094 17.644531 244.871094 17.644531 C 248.300781 13.503906 247.578125 7.335938 243.285156 4.097656 Z M 374.53125 145.011719 L 374.53125 117.546875 L 393.609375 117.546875 L 393.609375 123.304688 L 381.4375 123.304688 L 381.4375 129.59375 L 392.167969 129.59375 L 392.167969 135.140625 L 381.4375 135.140625 L 381.4375 145.011719 Z M 424.363281 145.011719 L 416.960938 145.011719 C 416.21875 144.152344 415.890625 143.371094 415.644531 142.011719 L 414.902344 138.351562 C 414.371094 136.011719 413.21875 135.351562 411.074219 135.351562 L 407.003906 135.351562 L 407.003906 145.011719 L 400.21875 145.011719 L 400.21875 117.546875 L 412.71875 117.546875 C 419.050781 117.546875 422.921875 120.136719 422.921875 125.691406 C 422.921875 129.761719 420.078125 132.191406 417.003906 132.5625 L 417.003906 132.644531 C 419.472656 133.058594 420.90625 134.417969 421.5625 137.046875 L 422.675781 141.777344 C 423.003906 143.089844 423.5 144.078125 424.363281 145.019531 Z M 415.773438 126.476562 C 415.773438 124.335938 414.582031 123.144531 411.988281 123.144531 L 407.011719 123.144531 L 407.011719 129.972656 L 412.027344 129.972656 C 414.5 129.972656 415.773438 128.859375 415.773438 126.476562 Z M 454.910156 131.28125 C 454.910156 140.082031 449.769531 145.503906 441.796875 145.503906 C 433.820312 145.503906 428.71875 140.074219 428.71875 131.28125 C 428.71875 122.488281 433.820312 117.058594 441.796875 117.058594 C 449.769531 117.058594 454.910156 122.488281 454.910156 131.28125 Z M 447.753906 131.28125 C 447.753906 126.097656 445.613281 122.808594 441.796875 122.808594 C 437.976562 122.808594 435.878906 126.097656 435.878906 131.28125 C 435.878906 136.464844 437.976562 139.753906 441.796875 139.753906 C 445.613281 139.753906 447.753906 136.464844 447.753906 131.28125 Z M 477.277344 138.851562 L 473.246094 138.851562 L 468.027344 127.917969 L 467.945312 127.917969 L 467.988281 133.546875 L 467.988281 145.023438 L 461.371094 145.023438 L 461.371094 117.554688 L 468.8125 117.554688 L 475.3125 130.917969 L 475.398438 130.917969 L 481.855469 117.554688 L 489.171875 117.554688 L 489.171875 145.023438 L 482.554688 145.023438 L 482.554688 133.546875 L 482.597656 127.917969 L 482.511719 127.917969 L 477.292969 138.851562 Z M 519.554688 136.21875 L 519.425781 136.21875 L 513.753906 145.023438 L 506.394531 145.023438 L 515.597656 131.003906 L 506.882812 117.554688 L 514.527344 117.554688 L 519.628906 125.785156 L 519.753906 125.785156 L 524.855469 117.554688 L 532.214844 117.554688 L 523.539062 130.875 L 532.789062 145.023438 L 525.183594 145.023438 Z M 557.832031 145.011719 L 538.34375 145.011719 L 538.34375 117.546875 L 557.75 117.546875 L 557.75 123.304688 L 545.003906 123.304688 L 545.003906 128.566406 L 556.308594 128.566406 L 556.308594 133.742188 L 545.003906 133.742188 L 545.003906 139.253906 L 557.832031 139.253906 Z M 589.125 145.011719 L 581.722656 145.011719 C 580.984375 144.152344 580.652344 143.371094 580.410156 142.011719 L 579.667969 138.351562 C 579.136719 136.011719 577.980469 135.351562 575.839844 135.351562 L 571.769531 135.351562 L 571.769531 145.011719 L 564.984375 145.011719 L 564.984375 117.546875 L 577.484375 117.546875 C 583.816406 117.546875 587.675781 120.136719 587.675781 125.691406 C 587.675781 129.761719 584.835938 132.191406 581.757812 132.5625 L 581.757812 132.644531 C 584.226562 133.058594 585.660156 134.417969 586.320312 137.046875 L 587.429688 141.777344 C 587.761719 143.089844 588.257812 144.078125 589.117188 145.019531 Z M 580.527344 126.476562 C 580.527344 124.335938 579.339844 123.144531 576.742188 123.144531 L 571.769531 123.144531 L 571.769531 129.972656 L 576.785156 129.972656 C 579.253906 129.972656 580.527344 128.859375 580.527344 126.476562 Z M 619.675781 131.28125 C 619.675781 140.082031 614.535156 145.503906 606.558594 145.503906 C 598.585938 145.503906 593.484375 140.074219 593.484375 131.28125 C 593.484375 122.488281 598.585938 117.058594 606.558594 117.058594 C 614.535156 117.058594 619.675781 122.488281 619.675781 131.28125 Z M 612.519531 131.28125 C 612.519531 126.097656 610.378906 122.808594 606.558594 122.808594 C 602.742188 122.808594 600.640625 126.097656 600.640625 131.28125 C 600.640625 136.464844 602.742188 139.753906 606.558594 139.753906 C 610.378906 139.753906 612.519531 136.464844 612.519531 131.28125 Z M 612.519531 131.28125 " fill-opacity="1" fill-rule="nonzero"/></svg>