<svg width="1368" height="614" viewBox="0 0 1368 614" fill="none" xmlns="http://www.w3.org/2000/svg">
<path d="M1158.38 283.213L1164.5 251.743H1114.94L1124.11 204.537H1091.07L1081.89 251.743H1032.33L1041.5 204.537H1008.45L999.283 251.743H949.713L943.598 283.213H993.163L984.003 330.423H934.433L928.318 361.894H977.888L968.708 409.104H1001.75L1010.93 361.894H1060.5L1051.32 409.104H1084.37L1093.55 361.894H1143.12L1149.24 330.423H1099.67L1108.84 283.213H1158.38ZM1066.6 330.423H1017.03L1026.21 283.213H1075.77L1066.6 330.423ZM313.063 408.999L273.138 327.418H244.423V408.999H204.497V204.497H284.628C326.273 204.497 350.999 232.928 350.999 267.108C350.999 295.833 333.473 313.608 313.658 320.818L359.304 408.999H313.063ZM282.063 240.118H244.423V294.118H282.048C299.548 294.118 311.048 282.913 311.048 267.118C311.048 251.323 299.563 240.108 282.048 240.108L282.063 240.118ZM472.229 408.999V395.204C462.464 405.544 448.679 410.704 434.889 410.704C419.959 410.704 407.889 405.824 399.564 397.499C387.504 385.429 384.344 371.364 384.344 354.999V259.353H421.684V349.819C421.684 370.219 434.609 377.109 446.379 377.109C458.149 377.109 471.379 370.219 471.379 349.819V259.353H508.72V408.999H472.229ZM597.455 408.999C567.01 408.999 554.09 387.459 554.09 366.209V287.568H538.29V259.133H554.09V219.433H591.425V259.133H617.846V287.568H591.425V363.894C591.425 372.519 595.425 377.394 604.345 377.394H617.846V408.999H597.455ZM680.121 345.804C680.121 365.044 691.896 379.114 712.861 379.114C729.236 379.114 737.276 374.519 746.757 365.044L769.447 387.159C754.217 402.384 739.571 410.709 712.571 410.709C677.251 410.709 643.361 394.629 643.361 334.029C643.361 285.203 669.781 257.633 708.556 257.633C750.197 257.633 773.752 288.073 773.752 329.133V345.794L680.121 345.804ZM733.541 304.158C729.541 295.253 721.191 288.658 708.541 288.658C695.891 288.658 687.571 295.263 683.541 304.158C681.241 309.613 680.376 313.633 680.091 320.238H737.001C736.701 313.633 735.831 309.613 733.541 304.158ZM904.718 262.743C897.863 259.098 890.373 257.633 881.188 257.633C865.102 257.633 850.737 265.098 843.562 273.713V259.353H807.087V408.999H844.422V318.803C844.422 299.848 857.102 292.333 868.552 291.233C882.172 289.923 889.613 296.848 889.613 296.848L904.718 262.743Z" fill="#E60000"/>
</svg>
