<?xml version="1.0" encoding="UTF-8"?>
<svg width="242" height="120" viewBox="0 0 242 120" xmlns="http://www.w3.org/2000/svg"><title>Svenn</title><path d="M236.595 67.941C233.683 73.2754 229.529 78.6474 226.177 78.6474C223.805 78.6474 222.701 76.6643 222.638 73.0495C222.55 68.0289 226.34 55.992 228.273 46.9048C229.529 41.0433 227.119 35.2822 221.445 35.2822C215.17 35.2822 209.371 38.9723 202.179 50.4317C203.083 46.4153 203.698 43.1143 203.986 41.7461C204.576 38.8217 202.618 37.2151 199.543 37.2151C197.739 37.268 195.965 37.6955 194.334 38.4702C193.707 41.5955 193.481 42.926 192.627 46.9048C191.381 52.4118 189.646 57.7968 187.444 62.9958C186.314 65.6441 180.779 75.61 177.402 75.61C175.884 75.61 175.331 73.6143 175.507 71.2797C175.896 65.845 178.017 58.8789 179.687 48.9005C180.641 43.1896 179.687 36.462 172.771 36.462C167.349 36.462 161.098 40.9429 155.199 51.1598C155.839 48.3106 156.266 46.4529 156.454 44.9844C157.082 41.4073 155.877 39.8258 153.617 39.7128C151.294 39.6438 148.984 40.0717 146.839 40.968C146.099 44.9342 142.66 60.0587 140.024 65.3052C134.878 75.5472 126.669 82.2748 119.766 82.2748C115.649 82.2748 113.39 77.7061 113.277 73.6017C113.277 72.4721 113.277 71.3425 113.277 70.2254C125.891 68.2799 137.413 60.7365 137.614 49.892C137.715 44.8715 134.112 38.9095 125.063 38.9095C113.139 38.9095 104.441 48.7499 102.282 64.7655C98.19 62.0921 96.5458 54.6365 96.0061 50.3314C95.504 46.8295 95.0271 44.7836 92.6172 44.7836C91.2633 44.8075 89.9492 45.2455 88.8517 46.0387C88.0072 51.3861 86.8165 56.673 85.2872 61.8661C83.0108 69.7498 79.989 77.3989 76.2627 84.7098C74.882 77.681 73.903 57.4857 75.5472 46.6036C75.8485 44.5828 74.2921 43.4155 72.2839 43.4155C66.3094 43.4155 52.1136 48.4361 38.6459 54.9001C33.0731 49.2394 25.6803 45.0472 25.9564 37.328C26.4334 24.1866 43.8548 10.5558 54.0214 10.5558C56.5317 10.5558 57.6237 11.8862 57.6237 13.8066C57.6237 16.8315 54.875 20.9735 51.0091 28.0525C53.2627 30.0686 56.1464 31.2398 59.1676 31.3661C59.9147 31.3576 60.6479 31.1635 61.3014 30.8013C65.2174 28.542 69.2841 18.3753 69.2841 13.4301C69.2841 5.23395 62.5188 0 54.624 0C32.0313 0 11.949 21.2622 11.949 37.2025C11.949 48.3357 18.5762 53.896 26.3581 61.2762C11.2963 69.9242 0 80.6306 0 94.6003C0 105.244 6.91582 116.603 19.9693 116.603C28.9494 116.684 37.5959 113.204 44.0173 106.926C50.4387 100.648 54.1124 92.0827 54.2349 83.1032C54.2349 70.7275 49.0636 65.7947 43.1394 59.6194C50.3564 56.2682 58.2011 52.9671 62.3556 52.3145C60.8244 67.3762 64.64 89.1279 67.7151 94.0857C69.5102 95.0783 71.5255 95.6048 73.5766 95.617C74.6302 95.6951 75.6865 95.506 76.6475 95.0672C77.6085 94.6284 78.4432 93.954 79.0742 93.1067C82.6011 88.0861 89.8057 67.1378 91.9018 59.9458C93.157 64.138 97.4621 68.4933 101.943 70.1124C101.943 70.5015 101.943 70.9032 101.943 71.3676C101.805 78.5721 104.165 90.973 115.348 90.973C128.163 90.973 137.049 80.1913 140.84 74.3046C139.873 80.9444 139.76 83.7935 141.744 84.9483C142.639 85.2904 143.598 85.4359 144.555 85.375C146.789 85.375 149.751 84.8227 150.956 83.7308C151.63 76.7714 152.889 69.8813 154.722 63.1338C156.969 55.5402 164.863 45.4739 167.273 45.4739C168.466 45.4739 168.604 47.7583 168.29 49.8544C167.524 55.0883 164.299 67.0248 164.223 72.5349C164.123 80.2164 167.035 84.2579 172.256 84.2579C179.423 84.2579 186.314 76.2375 190.305 67.8783C189.69 71.6437 188.36 76.6643 188.611 79.2499C188.899 82.2622 191.196 83.3417 193.631 83.3417C195.366 83.3641 197.083 82.9907 198.652 82.2497C199.907 74.2921 201.451 61.9289 205.392 54.8624C208.329 49.6034 213.463 43.2398 215.998 43.2398C217.755 43.2398 217.052 47.1056 216.425 49.7916C215.044 55.6657 211.404 68.9828 211.756 74.5807C212.346 82.689 217.517 85.4629 223.429 85.4629C231.788 85.4629 239.155 76.4258 241.001 70.966C241.352 69.4221 239.745 67.0248 236.595 67.941ZM41.5579 86.5046C41.5579 94.6254 34.391 107.779 21.0237 107.779C11.6227 107.779 8.08314 100.55 8.08314 94.2363C8.08314 83.4797 18.1243 72.9616 30.9017 65.7571C37.4661 72.698 41.5579 79.3754 41.5579 86.5046ZM125.314 45.0848C126.945 45.0848 128.012 46.9675 127.937 49.2896C127.724 55.3896 123.067 62.8075 113.942 65.2425C115.9 53.9085 121.887 45.1099 125.314 45.1099V45.0848Z" fill="#1a1a1a"></path><path d="M65.5814 111.57C91.1517 106.431 117.009 102.839 143.011 100.813C158.713 99.4074 191.033 97.487 207.802 99.7337C211.931 100.286 212.245 102.621 211.567 104.754C190.764 104.868 169.993 106.407 149.4 109.361C128.339 112.273 86.3415 119.691 74.6059 119.992C67.2633 120.193 64.2007 116.791 65.6065 111.52" fill="#1a1a1a"></path></svg>