<svg id="798b6a01-f30f-4847-9bae-81a58a9d74fb" data-name="Livello 1" xmlns="http://www.w3.org/2000/svg" viewBox="0 0 1000 196.65"><defs><style>.\31 779624e-2342-4d1b-9927-cd9dc5167624{fill:#1a1a1a;}</style></defs><title>Tavola disegno 86 copia</title><path class="1779624e-2342-4d1b-9927-cd9dc5167624" d="M111.73,132.49h0a6.86,6.86,0,1,0-6.73-6.86v0A6.78,6.78,0,0,0,111.73,132.49Z"/><path class="1779624e-2342-4d1b-9927-cd9dc5167624" d="M84.94,132.49h0a6.86,6.86,0,1,0-6.73-6.86v0A6.78,6.78,0,0,0,84.94,132.49Z"/><path class="1779624e-2342-4d1b-9927-cd9dc5167624" d="M0,196.65H196.66V0H0ZM44.77,75.94A37.4,37.4,0,0,0,63.3,85.57c1,.19,2,.34,3,.47A54.6,54.6,0,0,1,46.21,54l22.21-4.82a30.46,30.46,0,0,0,59.83,0L150.43,54A54.38,54.38,0,0,1,130.1,86.21a33.78,33.78,0,0,0,7.69-1.67,43.13,43.13,0,0,0,14.36-8.73l15,17.39a66,66,0,0,1-21.89,13.24A60.76,60.76,0,0,1,129,109.61a54.44,54.44,0,0,1,21.45,33.05l-22.18,4.82a31.14,31.14,0,0,0-6.2-13.12,13.26,13.26,0,0,1-10.32,5,13.55,13.55,0,0,1-13.39-13.71,13.57,13.57,0,0,1-13.4,13.71,13.27,13.27,0,0,1-10.33-5,31.36,31.36,0,0,0-6.19,13.12l-22.19-4.82a54.49,54.49,0,0,1,21.64-33.21A60.39,60.39,0,0,1,29.5,93.08Z"/><path class="1779624e-2342-4d1b-9927-cd9dc5167624" d="M325,69.17l-.12-22.57H282.64V15.11l-27,4.89V128.44c0,36.59,10.66,46.61,49.57,46.61h19.67V153H305c-19,0-22.33-3.78-22.33-25.29V69.17Z"/><path class="1779624e-2342-4d1b-9927-cd9dc5167624" d="M542.56,42.67c-38.33,0-55.85,23.28-55.85,45.54v86.84h24.77V88.21c0-16.14,11.46-23,31.08-23s31.22,8,31.22,24.08v85.74h24.64v-87C598.42,65.84,580.89,42.67,542.56,42.67Z"/><polygon class="1779624e-2342-4d1b-9927-cd9dc5167624" points="864.02 67.36 864.02 46.6 757.98 46.6 758.24 69.17 831.42 69.17 757.99 154.29 757.99 175.05 867.72 175.05 867.72 152.48 790.82 152.48 864.02 67.36"/><path class="1779624e-2342-4d1b-9927-cd9dc5167624" d="M419.13,45.86H365.61l5.14,22.5H413.1c20.55,0,23.62,12.37,23.62,19.74v5.7h-49a38,38,0,0,0-38,38v5.09a38,38,0,0,0,38,38H432a29.46,29.46,0,0,0,29.42-29.43V88.1A42.29,42.29,0,0,0,419.13,45.86Zm17.59,99.54a4.78,4.78,0,0,1-4.77,4.78H387.7a13.33,13.33,0,0,1-13.32-13.32v-5.09a13.33,13.33,0,0,1,13.32-13.32h49Z"/><path class="1779624e-2342-4d1b-9927-cd9dc5167624" d="M691.42,45.86H637.9L643,68.36h42.35C705.94,68.36,709,80.73,709,88.1v5.7H660a38,38,0,0,0-38,38v5.09a38,38,0,0,0,38,38h44.25a29.46,29.46,0,0,0,29.42-29.43V88.1A42.29,42.29,0,0,0,691.42,45.86ZM709,145.4a4.78,4.78,0,0,1-4.77,4.78H660a13.33,13.33,0,0,1-13.32-13.32v-5.09A13.33,13.33,0,0,1,660,118.45h49Z"/><path class="1779624e-2342-4d1b-9927-cd9dc5167624" d="M957.76,45.86H904.24l5.14,22.5h42.36c20.54,0,23.61,12.37,23.61,19.74v5.7h-49a38,38,0,0,0-38,38v5.09a38,38,0,0,0,38,38h44.25A29.46,29.46,0,0,0,1000,145.4V88.1A42.29,42.29,0,0,0,957.76,45.86Zm17.59,99.54a4.78,4.78,0,0,1-4.77,4.78H926.33A13.33,13.33,0,0,1,913,136.86v-5.09a13.33,13.33,0,0,1,13.32-13.32h49Z"/></svg>