<svg width="587" height="210" viewBox="0 0 587 210" fill="none" xmlns="http://www.w3.org/2000/svg">
<path d="M178.064 144.01C177.297 140.049 179.982 136.089 184.2 135.693C184.584 135.693 185.351 135.693 186.118 135.693H198.39C203.375 135.693 210.278 133.713 210.278 144.406C210.278 154.307 202.608 162.228 193.021 162.228C181.132 162.228 178.064 153.911 178.064 147.178V144.01ZM183.433 125.396C178.064 125.396 174.613 123.416 174.613 119.059C173.846 115.891 175.38 112.723 178.064 111.535C182.666 113.515 187.652 114.703 192.637 114.703C207.977 114.703 214.113 105.198 214.113 96.4852C214.113 91.7327 212.579 86.9803 209.128 83.4159C210.278 81.8318 212.196 80.6437 214.113 80.2476C215.647 80.2476 214.113 77.8714 214.497 80.6437C214.497 83.4159 216.798 85.3961 219.482 85.3961H220.249C222.934 85.3961 225.235 83.4159 225.618 80.2476C225.618 79.8516 225.618 79.8516 225.618 79.4556C226.002 75.8912 223.317 72.7229 219.866 72.7229H218.715C213.346 72.7229 212.963 78.2674 208.744 82.2278C204.526 78.2674 198.773 75.8912 193.021 76.2873C178.448 76.2873 170.011 85.3961 170.011 96.0892C170.011 101.634 173.079 107.178 177.297 110.347C166.943 116.683 166.176 124.604 166.176 126.584C166.176 137.673 174.229 135.693 180.749 135.693C173.462 137.673 168.093 139.257 168.093 148.762C168.093 153.515 170.394 165 190.336 165C207.977 165 218.332 153.119 218.332 139.653C218.332 123.02 207.977 126.188 196.089 126.188L182.666 125.792L183.433 125.396ZM191.87 112.723C186.118 112.723 182.283 110.743 182.283 94.109C182.283 86.1882 183.817 78.2674 191.87 78.2674C199.924 78.2674 201.074 85.7922 201.074 96.0892C201.074 110.347 197.623 112.723 191.87 112.723Z" fill="white"/>
<path d="M224.102 113.91H225.636C229.471 123.811 232.922 133.316 244.043 133.316C249.029 134.108 253.631 130.544 254.398 125.791C254.398 125.791 254.398 125.791 254.398 125.395C254.398 124.603 254.398 123.811 254.398 123.019C254.398 119.851 253.631 116.286 245.194 112.722L235.607 108.762C229.087 106.782 224.485 100.445 224.869 93.3162C224.869 82.6232 233.306 74.3064 243.66 74.3064H244.427C250.179 74.3064 255.165 77.4747 257.082 77.4747C258.233 77.4747 259 77.0787 259.383 75.8905H260.917V92.1281H259.383C256.315 83.4153 253.247 76.2866 243.66 76.2866C238.674 75.8905 233.689 79.4549 233.306 84.9994V85.3955C233.306 87.7717 234.073 91.7321 242.126 94.9004L252.097 98.8608C260.534 102.425 265.136 107.574 265.136 116.286C265.136 127.772 255.165 135.296 244.81 135.296C239.058 135.296 231.005 131.732 227.937 131.732C226.786 131.732 226.019 132.524 225.636 133.712H224.102V113.91Z" fill="white"/>
<path d="M323.804 129.752C322.653 131.336 321.119 132.128 319.202 132.128C315.75 132.128 315.367 128.96 315.367 125.791V92.9202C315.367 77.8707 305.396 74.3064 293.507 74.3064C283.153 74.3064 273.182 79.4549 273.182 88.5638C272.798 91.7321 275.099 94.9004 278.167 95.2964C278.934 95.2964 279.318 95.2964 280.085 95.2964C282.386 95.2964 287.371 95.2964 287.371 89.7519C287.371 88.5638 286.604 83.4153 286.604 82.6232C286.221 79.4549 288.905 76.2866 291.973 76.2866C291.973 76.2866 291.973 76.2866 292.357 76.2866C292.74 76.2866 293.124 76.2866 293.507 76.2866C299.26 76.2866 300.794 81.039 300.794 85.7915V93.7123C300.794 100.445 298.109 101.633 285.454 105.593C277.784 108.366 269.73 111.138 269.73 121.435C269.73 131.732 278.551 134.9 286.221 134.9C294.658 134.9 298.493 132.92 301.177 125.791H301.561C302.711 131.336 306.163 134.9 314.216 134.9C318.051 134.9 322.653 134.9 324.954 130.94L323.804 129.752ZM300.794 117.871C300.794 128.168 296.575 132.128 292.357 132.128C285.07 132.128 284.687 123.811 284.687 119.455C284.687 108.762 291.206 106.782 297.342 103.613C298.876 103.217 300.027 102.029 300.41 100.445H300.794V117.871Z" fill="white"/>
<path d="M321.883 78.2675H314.98V76.2874H346.427V78.2675H337.99L352.563 115.099L365.602 78.2675H356.782V76.2874H370.588V78.2675H367.52L346.427 135.297L321.883 78.2675Z" fill="white"/>
<path d="M402.028 93.7127C402.028 83.0197 410.465 74.7029 420.819 74.7029H421.586C427.722 74.7029 432.324 77.8712 434.242 77.8712C435.392 77.8712 436.159 77.4752 436.543 76.287H438.46V92.1286H436.926C433.858 83.4157 431.174 76.287 421.203 76.287C415.834 75.495 411.232 79.4553 410.465 84.9999V85.3959C410.465 87.7721 411.232 91.7325 419.285 94.9008L429.64 98.8612C438.077 102.426 442.679 107.574 442.679 116.287C442.679 127.772 432.708 135.297 422.353 135.297C416.601 135.297 408.547 131.732 405.863 131.732C404.713 131.732 403.946 132.524 403.562 133.713H401.645V114.703H403.179C407.013 124.604 410.465 134.109 421.586 134.109C426.572 134.901 431.174 131.336 431.941 126.584C431.941 126.584 431.941 126.584 431.941 126.188C431.941 125.396 431.941 124.604 431.941 123.812C431.941 120.643 430.79 117.079 422.353 113.515L412.766 109.554C406.246 106.782 402.028 100.445 402.028 93.7127Z" fill="white"/>
<path d="M496.763 100.049C497.53 86.9801 488.326 75.891 475.671 74.7029C474.904 74.7029 474.137 74.7029 473.37 74.7029C458.03 74.7029 445.758 89.3563 445.758 104.802C444.991 120.643 456.879 134.505 472.219 135.297H475.287C485.258 135.693 494.079 128.96 496.38 118.663L494.846 117.871C493.312 126.584 486.025 132.921 477.205 133.317C463.015 133.317 462.248 118.663 462.248 105.99V100.049H496.763ZM461.865 98.0691C462.248 88.9603 462.632 76.287 473.37 76.287C481.04 76.287 481.04 85.3959 481.04 89.3563V98.0691H461.865Z" fill="white"/>
<path d="M391.294 131.337V78.2675H394.746V76.2874H391.294H374.037V78.2675H376.721V131.337H370.969V133.317H397.047V131.337H391.294Z" fill="white"/>
<path d="M504.421 78.2674H496.751V76.6833H518.994V89.7525C521.678 81.0397 529.732 75.0991 538.936 75.0991C549.29 75.0991 555.426 82.6239 555.426 94.109V131.733H563.096V133.713H533.183V131.733H540.47V89.3565C540.47 82.2278 537.785 78.6635 533.183 78.6635C525.513 78.6635 518.61 86.5842 518.61 102.822V131.337H526.28V133.317H496.367V131.337H504.037" fill="white"/>
<path d="M375.961 57.6731C375.961 52.5246 380.179 48.1682 385.165 48.1682C390.15 48.1682 394.369 52.5246 394.369 57.6731C394.369 62.8216 390.15 67.178 385.165 67.178C379.796 67.178 375.961 62.8216 375.961 57.6731Z" fill="white"/>
<path d="M35.0277 131.336H23.9062V133.317H35.0277C43.8482 133.317 53.0521 133.713 61.8726 133.713C80.2805 133.713 109.81 126.584 109.81 87.7721C109.81 48.9604 80.664 45 59.1881 45C51.1346 45 43.0812 45.396 35.0277 45.396H23.9062V47.3762H35.0277V131.336ZM52.2851 47.3762C54.5861 46.9802 57.2706 46.9802 59.5716 46.9802C87.1835 46.9802 90.2515 60.8415 90.2515 89.3563C90.2515 106.782 89.101 132.128 58.4211 132.128C56.5036 132.128 54.2026 132.128 52.2851 131.732V47.3762Z" fill="white"/>
<path d="M165.414 129.752C164.264 131.336 162.73 132.128 160.813 132.128C157.361 132.128 156.978 128.96 156.978 125.791V92.9202C156.978 77.8707 147.39 74.3064 135.118 74.3064C124.38 74.3064 114.409 79.4549 114.409 88.5638C114.026 91.7321 116.327 94.9004 119.395 95.2964C120.162 95.2964 120.545 95.2964 121.312 95.2964C123.613 95.2964 128.599 95.2964 128.599 89.7519C128.599 88.5638 127.832 83.4153 127.832 82.6232C127.448 79.0589 130.133 76.2866 133.201 75.8905C133.584 75.8905 133.968 75.8905 134.351 75.8905C140.104 75.8905 141.638 80.643 141.638 85.3955V93.3162C141.638 100.049 138.953 101.237 126.298 105.197C118.628 107.97 110.574 110.742 110.574 121.039C110.574 131.336 120.545 134.9 128.215 134.9C136.652 134.9 140.487 132.92 143.172 125.791C144.322 131.336 147.774 134.9 155.827 134.9C159.662 134.9 164.264 134.9 166.565 130.94L165.414 129.752ZM142.405 117.871C142.405 128.168 138.186 132.128 133.968 132.128C126.681 132.128 126.298 123.811 126.298 119.455C126.298 108.762 133.201 106.782 138.953 103.613C140.487 102.821 141.638 101.633 142.021 100.445L142.405 117.871Z" fill="white"/>
</svg>
