<svg width="254" height="136" viewBox="0 0 254 136" fill="none" xmlns="http://www.w3.org/2000/svg">
<path fill-rule="evenodd" clip-rule="evenodd" d="M31.3336 47.4825H44.049C46.4253 47.4825 48.3842 46.8019 49.8711 45.4595C51.3673 44.113 52.1259 42.274 52.1259 39.9938C52.1259 38.799 51.9384 37.7235 51.5685 36.7972C51.1969 35.866 50.6312 35.0606 49.8874 34.4031C48.4139 33.0968 46.4496 32.4344 44.049 32.4344H31.3336V47.4825ZM61.4564 73.5086C59.4386 73.5086 57.3939 73.0266 55.3792 72.0761C53.3622 71.1225 51.4663 69.8607 49.7443 68.3261C48.0087 66.7755 46.3853 65.1929 44.9192 63.6226C43.6392 62.2516 42.2455 60.7486 40.4001 58.7495C38.8701 57.0919 37.569 55.8659 36.5327 55.1056L36.4861 55.0713H31.3352V72.8016H21.5938V23.9609H42.9108C44.9076 23.9609 46.8278 24.1258 48.6181 24.4508C50.4106 24.7784 52.1686 25.3388 53.8432 26.1163C55.5092 26.8899 56.9753 27.8771 58.2006 29.0508C59.4196 30.2183 60.4034 31.7357 61.1245 33.5612C61.8521 35.392 62.221 37.4847 62.221 39.7813C62.221 41.7517 61.8985 43.5946 61.2624 45.2586C60.6268 46.9215 59.6594 48.454 58.3874 49.8138C57.1112 51.1758 55.6434 52.2908 54.0251 53.128C52.4052 53.966 50.5873 54.55 48.6218 54.8636L48.2801 54.9181L48.5239 55.1646C48.8498 55.494 49.4971 56.1439 50.4478 57.0962C51.3773 58.0231 52.0874 58.7276 52.5322 59.1537C52.9561 59.5619 53.5922 60.1493 54.4767 60.949C55.3398 61.7293 56.0717 62.3136 56.652 62.6856C57.2962 63.0961 57.9681 63.5138 58.6494 63.9274C59.5372 64.4658 60.2574 64.7769 60.9162 64.9064C62.2174 65.1622 63.3006 65.2713 64.5383 65.2713C65.5365 65.2713 66.6497 65.2022 68.3458 65.034L68.2952 72.5727C66.7373 73.1768 64.3166 73.5086 61.4564 73.5086V73.5086Z" fill="#007E67"/>
<path fill-rule="evenodd" clip-rule="evenodd" d="M81.375 72.8006V24.6055H119.784V33.0785H90.6587V43.5593H114.508V52.0345H90.6587V64.3276H119.784V72.8006H81.375Z" fill="#007E67"/>
<path fill-rule="evenodd" clip-rule="evenodd" d="M151.246 73.5082C148.02 73.5082 144.775 73.0643 141.602 72.189C138.497 71.3336 135.99 70.3812 134.146 69.3573L136.443 60.0912C138.373 61.3288 140.665 62.394 143.259 63.2587C145.952 64.156 148.71 64.6111 151.457 64.6111C152.917 64.6111 154.235 64.4831 155.374 64.2307C156.519 63.9769 157.518 63.5897 158.341 63.08C160.006 62.0483 160.85 60.6586 160.85 58.9495C160.85 57.6192 160.25 56.5401 159.068 55.7418C157.924 54.9712 156.127 54.232 153.728 53.5444L144.435 51.0514C142.615 50.5744 140.996 49.9329 139.622 49.1445C138.251 48.3579 137.084 47.4025 136.153 46.3047C135.222 45.2089 134.513 43.9602 134.047 42.5929C133.58 41.2231 133.344 39.6949 133.344 38.0509C133.344 36.0174 133.741 34.0988 134.525 32.3485C135.307 30.6059 136.481 29.034 138.015 27.6765C139.548 26.3222 141.591 25.247 144.089 24.4808C146.593 23.7134 149.51 23.3242 152.76 23.3242C156.049 23.3242 159.313 23.7083 162.462 24.466C165.542 25.2092 168.102 26.1134 170.072 27.1542L167.318 36.2537C165.511 35.1032 163.238 34.1419 160.557 33.3945C157.773 32.6161 155.031 32.2214 152.408 32.2214C149.411 32.2214 147.15 32.6601 145.685 33.5251C144.194 34.4069 143.437 35.6405 143.437 37.1915C143.437 38.5169 143.872 39.5537 144.729 40.273C145.562 40.9725 146.954 41.6048 148.865 42.1524L157.939 44.766C160.158 45.4049 162.112 46.1599 163.749 47.01C165.38 47.857 166.74 48.8218 167.791 49.8776C168.836 50.9288 169.631 52.1557 170.153 53.5242C170.678 54.8966 170.943 56.4513 170.943 58.1452C170.943 60.4145 170.485 62.4972 169.582 64.3357C168.678 66.1742 167.303 67.8234 165.493 69.2374C163.677 70.6532 161.56 71.7303 159.2 72.4386C156.835 73.1484 154.159 73.5082 151.246 73.5082" fill="#007E67"/>
<path fill-rule="evenodd" clip-rule="evenodd" d="M206.331 32.4229C204.113 32.4229 202.056 32.8055 200.217 33.5599C198.377 34.3151 196.704 35.4634 195.246 36.973C193.788 38.4812 192.679 40.2101 191.95 42.1115C191.221 44.0108 190.852 46.1341 190.852 48.4222C190.852 49.9867 191.041 51.494 191.413 52.9021C191.778 54.2833 192.33 55.6087 193.053 56.8414L193.191 57.0761L193.35 56.855C194.934 54.6472 197.025 52.814 199.398 51.5535C200.612 50.9086 201.9 50.4115 203.225 50.076C204.592 49.73 206.007 49.5545 207.429 49.5545C209.885 49.5545 212.261 50.0703 214.492 51.0874C216.631 52.063 218.538 53.4511 220.158 55.213L220.345 55.4155L220.452 55.1618C221.33 53.0804 221.775 50.8129 221.775 48.4222C221.775 46.1344 221.412 44.0114 220.694 42.1124C219.976 40.211 218.884 38.4823 217.448 36.974C216.014 35.4641 214.351 34.3154 212.503 33.5598C210.659 32.8054 208.582 32.4229 206.331 32.4229M207.43 58.2485C205.845 58.2485 204.293 58.6877 202.943 59.5185C201.64 60.3204 200.558 61.4616 199.815 62.8191L199.721 62.9889L199.898 63.0675C201.87 63.944 204.035 64.3884 206.332 64.3884C207.853 64.3884 209.315 64.1979 210.675 63.8221C212.004 63.4554 213.274 62.9015 214.453 62.176L214.615 62.076L214.504 61.9205C213.71 60.8105 212.66 59.8887 211.468 59.2546C210.23 58.5964 208.834 58.2485 207.43 58.2485M233.043 75.9668C231.232 75.9668 229.426 75.559 227.673 74.7546C225.911 73.9457 224.236 72.7506 222.694 71.2025C222.014 70.5205 221.399 69.8987 220.758 69.2458L220.656 69.142L220.535 69.2221C220.381 69.3233 220.228 69.4281 220.08 69.5295C219.761 69.749 219.43 69.9758 219.082 70.1724C217.171 71.253 215.121 72.075 212.988 72.6156C210.854 73.1563 208.58 73.4304 206.226 73.4304C203.895 73.4304 201.642 73.1564 199.53 72.6157C197.418 72.0754 195.388 71.2535 193.494 70.1728C191.599 69.0937 189.884 67.7912 188.398 66.3011C186.913 64.8128 185.613 63.0945 184.534 61.1941C183.457 59.2943 182.638 57.2575 182.1 55.1405C181.56 53.0213 181.287 50.7622 181.287 48.4257C181.287 46.0596 181.561 43.7722 182.1 41.627C182.638 39.4844 183.457 37.4229 184.534 35.4996C185.613 33.5763 186.913 31.8397 188.398 30.3383C189.885 28.8353 191.599 27.5244 193.494 26.4423C195.388 25.3584 197.418 24.5342 199.53 23.9924C201.642 23.4505 203.895 23.1758 206.226 23.1758C207.989 23.1758 209.722 23.3381 211.376 23.6584C213.03 23.9785 214.653 24.4657 216.202 25.1065C219.295 26.3889 221.98 28.1614 224.18 30.3747C226.381 32.5868 228.143 35.2856 229.418 38.3965C230.691 41.5049 231.337 44.8793 231.337 48.4257C231.337 50.7644 231.064 53.0235 230.526 55.1405C229.988 57.2592 229.168 59.296 228.09 61.1941C227.81 61.6885 227.485 62.1571 227.17 62.6103C227.092 62.7227 227.014 62.8352 226.937 62.9482L226.854 63.0692L226.956 63.1739C227.594 63.8249 228.168 64.4053 228.816 65.0557C229.71 65.9528 231.713 67.4711 233.555 67.471C233.711 67.471 233.863 67.4598 234.009 67.4377C235.288 67.2392 236.513 66.2627 237.312 64.8124L244.537 68.6234C242.432 72.578 238.919 75.1992 234.873 75.8253C234.26 75.9192 233.644 75.9668 233.043 75.9668" fill="#007E67"/>
<path fill-rule="evenodd" clip-rule="evenodd" d="M78.4868 113.953C76.904 113.953 75.4113 113.696 74.0504 113.19C72.6939 112.686 71.5073 111.961 70.524 111.035C69.5435 110.111 68.7647 108.937 68.2093 107.544C67.6532 106.144 67.3711 104.571 67.3711 102.871C67.3711 101.159 67.6532 99.5766 68.2096 98.1666C68.7652 96.762 69.5468 95.5762 70.5322 94.6426C71.5206 93.7072 72.707 92.977 74.0586 92.4722C75.4137 91.9671 76.9036 91.7109 78.4868 91.7109C79.8591 91.7109 81.0938 91.8928 82.1566 92.2515C83.2131 92.6081 84.1304 93.1501 84.8832 93.8623C85.6352 94.5747 86.2151 95.4361 86.6068 96.4224C86.9852 97.3756 87.1988 98.472 87.2421 99.6837L82.6312 100.651C82.5772 99.336 82.2183 98.2934 81.5631 97.5492C80.8669 96.756 79.8054 96.3537 78.4082 96.3537C76.6589 96.3537 75.2333 96.9381 74.1713 98.0908C73.1139 99.2384 72.5778 100.847 72.5778 102.871C72.5778 104.875 73.128 106.466 74.213 107.599C75.2996 108.733 76.7799 109.309 78.6126 109.309C79.8362 109.309 81.0172 109.062 82.1224 108.577C83.1554 108.123 84.09 107.532 84.9031 106.818L87.2276 110.552C86.2045 111.5 84.9159 112.306 83.3953 112.949C81.8226 113.615 80.1711 113.953 78.4868 113.953" fill="#007E67"/>
<path fill-rule="evenodd" clip-rule="evenodd" d="M101.914 113.645V92.0352H106.962V109.286H117.83V113.645H101.914Z" fill="#007E67"/>
<path fill-rule="evenodd" clip-rule="evenodd" d="M140.8 114.008C138.713 114.008 136.89 113.589 135.381 112.761C133.876 111.937 132.732 110.797 131.981 109.372C131.229 107.943 130.848 106.267 130.848 104.393V92.0352H135.895V104.064C135.895 105.715 136.318 107.024 137.151 107.954C137.987 108.89 139.215 109.365 140.8 109.365C142.416 109.365 143.667 108.885 144.52 107.939C145.369 106.996 145.799 105.693 145.799 104.064V92.0352H150.847V104.393C150.847 105.688 150.621 106.929 150.177 108.082C149.731 109.235 149.091 110.263 148.275 111.139C147.462 112.015 146.4 112.719 145.116 113.232C143.832 113.747 142.38 114.008 140.8 114.008" fill="#007E67"/>
<path fill-rule="evenodd" clip-rule="evenodd" d="M171.723 100.517H175.307C176.345 100.517 177.14 100.327 177.671 99.9521C178.222 99.5635 178.501 98.9775 178.501 98.2102C178.501 97.3947 178.227 96.7909 177.686 96.4155C177.167 96.0549 176.388 95.8719 175.37 95.8719H171.723V100.517ZM171.723 109.798H176.848C177.888 109.798 178.686 109.589 179.217 109.178C179.763 108.756 180.039 108.119 180.039 107.287C180.039 106.427 179.741 105.769 179.151 105.334C178.578 104.91 177.719 104.695 176.597 104.695H171.723V109.798ZM166.676 113.641V92.0312H176.172C178.606 92.0312 180.494 92.5042 181.785 93.437C182.422 93.896 182.906 94.4789 183.224 95.1694C183.544 95.8643 183.706 96.6902 183.706 97.6243C183.706 98.6791 183.439 99.6023 182.914 100.368C182.386 101.134 181.632 101.731 180.673 102.142L180.161 102.362L180.706 102.48C182.288 102.822 183.488 103.456 184.273 104.363C185.054 105.268 185.451 106.477 185.451 107.957C185.451 108.842 185.281 109.641 184.948 110.332C184.615 111.02 184.108 111.622 183.441 112.121C182.089 113.13 180.14 113.641 177.648 113.641H166.676Z" fill="#007E67"/>
</svg>
