<svg xmlns="http://www.w3.org/2000/svg" viewBox="0 0 160 160" role="img" aria-label="Coffee tasting illustration">
  <rect width="160" height="160" rx="24" fill="#FBF1DD" />
  <rect x="34" y="86" width="26" height="30" rx="4" fill="#8F250C" />
  <rect x="34" y="80" width="26" height="8" rx="4" fill="#DFA93E" />
  <rect x="67" y="78" width="26" height="38" rx="4" fill="#8F250C" />
  <rect x="67" y="72" width="26" height="8" rx="4" fill="#DFA93E" />
  <rect x="100" y="92" width="26" height="24" rx="4" fill="#8F250C" />
  <rect x="100" y="86" width="26" height="8" rx="4" fill="#DFA93E" />
  <path d="M40 70c2-6-3-8-1-14M73 62c2-6-3-8-1-14M106 76c2-6-3-8-1-14" stroke="#626C66" stroke-width="4" fill="none" stroke-linecap="round" />
  <circle cx="130" cy="120" r="5" fill="#88D18A" />
  <circle cx="140" cy="110" r="4" fill="#88D18A" />
</svg>
